<?xml version="1.0" encoding="UTF-8"?>
<svg id="Layer_1" xmlns="http://www.w3.org/2000/svg" width="362" height="114.29" version="1.1" viewBox="0 0 362 114.29">
  <!-- Generator: Adobe Illustrator 30.3.0, SVG Export Plug-In . SVG Version: 2.1.3 Build 182)  -->
  <defs>
    <style>
      .st0 {
        fill: #fff;
      }

      .st1 {
        fill: #fdb913;
        fill-rule: evenodd;
      }
    </style>
  </defs>
  <g>
    <path class="st0" d="M243.52,94.45l-6.5,8.89s12.17,10.95,32.29,10.95,35.95-11.06,41.84-21.19c0,0-4.38.72-11.87-2.44,0,0-10.31,13.22-29.92,13.22-16.66,0-25.85-9.42-25.85-9.42h.01Z"/>
    <g>
      <path class="st1" d="M315.14,0C289.26,0,268.28,20.98,268.28,46.86s20.98,46.86,46.86,46.86,46.86-20.98,46.86-46.86S341.02,0,315.14,0ZM314.7,81c-18.83,0-34.09-15.26-34.09-34.09s15.26-34.09,34.09-34.09,34.09,15.26,34.09,34.09-15.26,34.09-34.09,34.09Z"/>
      <g>
        <path class="st0" d="M310.99,98.62h2.96l2.92,5.16,2.92-5.16h2.85l-4.59,7.54v5.47h-2.53v-5.47l-4.53-7.54h0Z"/>
        <path class="st0" d="M329.7,109.04c-.46,1.56-1.89,2.86-4.11,2.86-2.47,0-4.66-1.77-4.66-4.83,0-2.88,2.13-4.75,4.44-4.75,2.79,0,4.45,1.77,4.45,4.68,0,.34-.03.72-.03.74h-6.45c.06,1.19,1.06,2.06,2.28,2.06,1.13,0,1.76-.57,2.06-1.37l2.04.61h-.02ZM327.42,106.09c-.03-.89-.63-1.77-2.01-1.77-1.27,0-1.97.95-2.01,1.77h4.04-.02Z"/>
        <path class="st0" d="M333.5,106.43l2.22-.33c.51-.07.69-.33.69-.64,0-.64-.49-1.18-1.52-1.18s-1.65.69-1.73,1.47l-2.16-.46c.15-1.42,1.45-2.96,3.87-2.96,2.86,0,3.92,1.61,3.92,3.43v4.44c0,.48.06,1.12.1,1.43h-2.23c-.06-.24-.09-.73-.09-1.09-.46.72-1.33,1.34-2.67,1.34-1.92,0-3.1-1.3-3.1-2.71,0-1.61,1.19-2.52,2.7-2.73h0ZM336.39,107.98v-.4l-2.04.31c-.63.09-1.12.45-1.12,1.13,0,.54.39,1.04,1.18,1.04,1.03,0,1.98-.49,1.98-2.09h0Z"/>
        <path class="st0" d="M346.24,105.03c-.27-.06-.51-.07-.73-.07-1.25,0-2.32.61-2.32,2.55v4.13h-2.44v-9.03h2.37v1.34c.55-1.19,1.8-1.42,2.56-1.42.21,0,.39.01.57.03v2.46h0Z"/>
        <path class="st0" d="M348.89,108.65c.06.72.58,1.37,1.65,1.37.8,0,1.19-.42,1.19-.89,0-.4-.27-.73-.97-.88l-1.19-.27c-1.74-.39-2.53-1.43-2.53-2.7,0-1.61,1.43-2.95,3.38-2.95,2.56,0,3.43,1.64,3.55,2.61l-2.04.46c-.07-.54-.46-1.21-1.49-1.21-.64,0-1.16.39-1.16.89,0,.45.33.72.82.8l1.28.27c1.77.37,2.68,1.45,2.68,2.77,0,1.47-1.13,2.96-3.5,2.96-2.71,0-3.65-1.76-3.75-2.79l2.09-.46h0v.02h0Z"/>
      </g>
      <path class="st0" d="M303.58,39.77c-20.35-18.56-43.68-12.92-43.68-12.92l5.04-14.2h37.96L310.26,0h-53.1l-20.08,51.4h0c1.95-1.85,13.35-15,31.57-15,0,0,20.13-1.39,32.96,18.36,7.12,10.95,2.68,24.61,2.68,24.61,0,0,4.62,2.03,11.32,1.62,0,0,7.88-23.09-12.01-41.23h-.02Z"/>
    </g>
  </g>
  <g>
    <path class="st1" d="M177.4,104.88c-16.98,0-24.15-13.69-24.15-29.07s7.15-29.07,24.15-29.07,24.15,13.69,24.15,29.07-7.17,29.07-24.15,29.07M177.4,37.65c-23.57,0-42.4,14.65-42.4,38.16s18.85,38.17,42.4,38.17,42.42-14.65,42.42-38.17-18.85-38.16-42.42-38.16"/>
    <path class="st0" d="M97.6,102.23h-9.52v-52.86h9.52c20.34,0,28.55,11.26,28.55,26.43s-8.21,26.43-28.55,26.43ZM40.58,102.23h-23.39v-22.53h23.39c9.42,0,13.95,4.42,13.95,11.26s-4.53,11.26-13.95,11.26h0ZM17.19,49.37h16.97c8.7,0,12.89,4.08,12.89,10.4s-4.19,10.4-12.89,10.4h-16.97v-20.8ZM135,75.83c0-7.14,1.74-13.45,4.83-18.8-6.57-11.25-20.17-17.19-40.21-17.19h-28.73v43.65c-2.68-6-8.64-9.68-15.51-10.85,5.35-2.64,9.54-7.15,9.54-14.99,0-10.76-7.14-17.79-24-17.79H0v71.93h44.64c13.26,0,22.72-3.68,26.25-12.32v12.32h28.73c20.01,0,33.61-5.94,40.2-17.18-3.07-5.33-4.81-11.64-4.81-18.77h0Z"/>
  </g>
</svg>